<svg id="onecard_logo" xmlns="http://www.w3.org/2000/svg" width="95.053" height="54.136" viewBox="0 0 95.053 54.136">
  <g id="Group_3268" data-name="Group 3268">
    <g id="Group_3266" data-name="Group 3266" transform="translate(35.088 1.449)">
      <g id="Group_3264" data-name="Group 3264" transform="translate(0 0.106)">
        <path id="Path_196" data-name="Path 196" d="M1707.785,2281.578a12.856,12.856,0,0,1,2.844,8.745v17.384h-7.761v-16.161q0-6.433-5-6.432a6.387,6.387,0,0,0-3.429.9,5.762,5.762,0,0,0-2.233,2.6,9.581,9.581,0,0,0-.771,3.987v15.1h-7.762V2279h5.316l1.542,3.562a9.719,9.719,0,0,1,1.834-1.781,12.563,12.563,0,0,1,4.838-2.18,13.479,13.479,0,0,1,2.844-.292A9.724,9.724,0,0,1,1707.785,2281.578Z" transform="translate(-1683.676 -2278.308)" fill="#fff"/>
      </g>
      <g id="Group_3265" data-name="Group 3265" transform="translate(30.248)">
        <path id="Path_197" data-name="Path 197" d="M1889.091,2295.021H1867.4a7.2,7.2,0,0,0,2.313,4.492,6.984,6.984,0,0,0,4.7,1.568,7.269,7.269,0,0,0,3.562-.877,6.425,6.425,0,0,0,2.5-2.419h8.187a14.723,14.723,0,0,1-14.247,10.207,14.242,14.242,0,0,1-10.632-4.359,14.849,14.849,0,0,1-4.253-10.792,16.591,16.591,0,0,1,.717-4.891,14.087,14.087,0,0,1,2.074-4.2,15.1,15.1,0,0,1,3.163-3.216,13.969,13.969,0,0,1,4.093-2.1,15.512,15.512,0,0,1,4.838-.744,14.948,14.948,0,0,1,7.735,2.021,13.714,13.714,0,0,1,5.263,5.475,15.854,15.854,0,0,1,1.834,7.549A16.893,16.893,0,0,1,1889.091,2295.021Zm-19.058-9.3a7.169,7.169,0,0,0-2.419,3.987h13.875a8.2,8.2,0,0,0-1.542-2.951,6.814,6.814,0,0,0-2.419-1.833,7.449,7.449,0,0,0-3.11-.638A6.762,6.762,0,0,0,1870.032,2285.718Z" transform="translate(-1859.533 -2277.69)" fill="#fff"/>
      </g>
    </g>
    <g id="Group_3267" data-name="Group 3267">
      <path id="Path_198" data-name="Path 198" d="M1495.632,2269.268a15.948,15.948,0,1,0,15.949,15.949A15.948,15.948,0,0,0,1495.632,2269.268Zm3.489,25.654a.6.6,0,0,1-.439.166h-.014q-.552,0-1.1,0H1494.6c-.482,0-.7-.213-.7-.689v-1.638c0-4.151,0-5.208,0-9.873l-.157.064a3.262,3.262,0,0,1-.713.287l-.029.012a1.335,1.335,0,0,1-.457.123c-.126.027-.251.057-.376.087-.235.055-.478.115-.73.154l-.016,0a.774.774,0,0,0-.126.027l-.05.014-.04,0a.929.929,0,0,1-.159.02l-.473.046-.281.027a.6.6,0,0,1-.482-.139.591.591,0,0,1-.185-.459q.005-2,0-4a.574.574,0,0,1,.58-.614,3.36,3.36,0,0,0,.673-.125l.133-.034a2.743,2.743,0,0,0,.562-.191l.021-.01.644-.284a3.131,3.131,0,0,0,1.4-1.064,1.491,1.491,0,0,0,.236-.564.662.662,0,0,1,.715-.589h4.024a.669.669,0,0,1,.485.144.617.617,0,0,1,.183.5v6.352c0,2.882,0,5.261,0,9.686v.521c0,.534,0,1.067.008,1.6A.585.585,0,0,1,1499.122,2294.922Z" transform="translate(-1479.684 -2269.268)" fill="#fff"/>
    </g>
  </g>
  <g id="Group_3269" data-name="Group 3269" transform="translate(18.064 35.448)">
    <path id="Path_199" data-name="Path 199" d="M1591.755,2515.9a7.17,7.17,0,0,1-3.6-.915,6.559,6.559,0,0,1-2.534-2.546,7.25,7.25,0,0,1-.916-3.612,6.9,6.9,0,0,1,7.049-7.074,6.753,6.753,0,0,1,4.177,1.33,6.533,6.533,0,0,1,2.4,3.537h-2.107a4.72,4.72,0,0,0-1.793-2.057,4.9,4.9,0,0,0-2.672-.753,4.63,4.63,0,0,0-3.474,1.443,4.948,4.948,0,0,0-1.392,3.575,5.192,5.192,0,0,0,.627,2.546,4.686,4.686,0,0,0,1.743,1.806,4.778,4.778,0,0,0,2.5.665,4.716,4.716,0,0,0,2.646-.765,4.952,4.952,0,0,0,1.793-2.12h2.157a6.547,6.547,0,0,1-2.42,3.6A6.779,6.779,0,0,1,1591.755,2515.9Z" transform="translate(-1584.706 -2497.21)" fill="#fff"/>
    <path id="Path_200" data-name="Path 200" d="M1687.742,2502.051h1.705V2515.6h-1.781l-.226-2.056a6.482,6.482,0,0,1-2.32,1.743,7.233,7.233,0,0,1-3,.614,6.752,6.752,0,0,1-4.992-2.019,7.369,7.369,0,0,1,0-10.109,6.756,6.756,0,0,1,4.992-2.02,7.171,7.171,0,0,1,3.023.627,6.6,6.6,0,0,1,2.32,1.756Zm-9.018,10.348a5.152,5.152,0,0,0,7.137.012,5.282,5.282,0,0,0,0-7.174,5.149,5.149,0,0,0-7.137.012,5.217,5.217,0,0,0,0,7.149Z" transform="translate(-1659.572 -2497.21)" fill="#fff"/>
    <path id="Path_201" data-name="Path 201" d="M1789.5,2503.063h1.2v2.032h-1.38a3.654,3.654,0,0,0-2.847,1.116,4.473,4.473,0,0,0-1.016,3.123v7.35h-2.132v-13.546h1.505l.351,2.057A4.923,4.923,0,0,1,1789.5,2503.063Z" transform="translate(-1749.168 -2498.298)" fill="#fff"/>
    <path id="Path_202" data-name="Path 202" d="M1842.864,2475.355H1845v18.386h-1.63l-.3-1.932a7.212,7.212,0,0,1-10.222.213,7.488,7.488,0,0,1,0-10.122,7.259,7.259,0,0,1,10.021,0Zm-8.4,15.2a4.766,4.766,0,0,0,3.549,1.429,4.826,4.826,0,0,0,3.575-1.442,5.216,5.216,0,0,0,.013-7.162,4.824,4.824,0,0,0-3.575-1.43,5.069,5.069,0,0,0-1.981.389,4.869,4.869,0,0,0-1.581,1.041,4.671,4.671,0,0,0-1.028,1.593,5.325,5.325,0,0,0-.376,1.994A4.911,4.911,0,0,0,1834.46,2490.556Z" transform="translate(-1788.531 -2475.355)" fill="#fff"/>
  </g>
</svg>
